<?xml version="1.0" encoding="utf-8" standalone="no"?>
<!DOCTYPE svg PUBLIC "-//W3C//DTD SVG 1.1//EN"
  "http://www.w3.org/Graphics/SVG/1.1/DTD/svg11.dtd">
<svg xmlns:xlink="http://www.w3.org/1999/xlink" width="398.691pt" height="55.44pt" viewBox="0 0 398.691 55.44" xmlns="http://www.w3.org/2000/svg" version="1.1">
 <metadata>
  <rdf:RDF xmlns:dc="http://purl.org/dc/elements/1.1/" xmlns:cc="http://creativecommons.org/ns#" xmlns:rdf="http://www.w3.org/1999/02/22-rdf-syntax-ns#">
   <cc:Work>
    <dc:type rdf:resource="http://purl.org/dc/dcmitype/StillImage"/>
    <dc:date>2024-10-22T11:53:30.751730</dc:date>
    <dc:format>image/svg+xml</dc:format>
    <dc:creator>
     <cc:Agent>
      <dc:title>Matplotlib v3.9.2, https://matplotlib.org/</dc:title>
     </cc:Agent>
    </dc:creator>
   </cc:Work>
  </rdf:RDF>
 </metadata>
 <defs>
  <style type="text/css">*{stroke-linejoin: round; stroke-linecap: butt}</style>
 </defs>
 <g id="figure_1">
  <g id="patch_1">
   <path d="M 0 55.44 
L 398.691 55.44 
L 398.691 0 
L 0 0 
L 0 55.44 
z
" style="fill: none"/>
  </g>
  <g id="axes_1">
   <g id="PolyCollection_1">
    <path d="M 0 55.44 
L 0 52.872676 
L 1.748645 51.48972 
L 3.497289 51.456304 
L 5.245934 54.758262 
L 6.994579 47.680189 
L 8.743224 51.892354 
L 10.491868 48.482973 
L 12.240513 52.377566 
L 13.989158 52.931475 
L 15.737803 51.935793 
L 17.486447 51.878201 
L 19.235092 51.247468 
L 20.983737 52.901927 
L 22.732382 52.302124 
L 24.481026 54.618823 
L 26.229671 52.52491 
L 27.978316 53.142719 
L 29.726961 53.681487 
L 31.475605 53.099473 
L 33.22425 53.422686 
L 34.972895 51.902026 
L 36.721539 53.344711 
L 38.470184 52.048333 
L 40.218829 51.297162 
L 41.967474 54.223572 
L 43.716118 52.689075 
L 45.464763 53.938977 
L 47.213408 52.6851 
L 48.962053 53.726572 
L 50.710697 54.157431 
L 52.459342 52.667533 
L 54.207987 50.378738 
L 55.956632 48.514172 
L 57.705276 50.569894 
L 59.453921 50.505586 
L 61.202566 51.35955 
L 62.951211 51.856146 
L 64.699855 49.349417 
L 66.4485 51.209156 
L 68.197145 49.601018 
L 69.945789 49.647298 
L 71.694434 47.372081 
L 73.443079 40.648178 
L 75.191724 40.992279 
L 76.940368 40.547824 
L 78.689013 45.430707 
L 80.437658 46.498186 
L 82.186303 45.951708 
L 83.934947 48.030473 
L 85.683592 45.58719 
L 87.432237 42.748746 
L 89.180882 41.364709 
L 90.929526 42.533684 
L 92.678171 46.235881 
L 94.426816 40.730937 
L 96.175461 40.719312 
L 97.924105 39.734385 
L 99.67275 46.702471 
L 101.421395 43.456896 
L 103.170039 46.361752 
L 104.918684 40.529749 
L 106.667329 41.677269 
L 108.415974 41.408128 
L 110.164618 39.655459 
L 111.913263 37.018648 
L 113.661908 39.285073 
L 115.410553 16.173896 
L 117.159197 -0 
L 118.907842 12.208342 
L 120.656487 12.4212 
L 122.405132 17.286572 
L 124.153776 16.182711 
L 125.902421 20.525468 
L 127.651066 25.966744 
L 129.399711 31.531598 
L 131.148355 30.822285 
L 132.897 30.805409 
L 134.645645 29.655894 
L 136.394289 23.716202 
L 138.142934 29.447148 
L 139.891579 27.46355 
L 141.640224 27.740734 
L 143.388868 28.244281 
L 145.137513 25.71665 
L 146.886158 28.484367 
L 148.634803 35.936403 
L 150.383447 38.542665 
L 152.132092 39.509173 
L 153.880737 37.842992 
L 155.629382 38.352609 
L 157.378026 37.193806 
L 159.126671 39.389439 
L 160.875316 37.086651 
L 162.623961 39.110768 
L 164.372605 36.846825 
L 166.12125 41.391203 
L 167.869895 44.38401 
L 169.618539 48.124002 
L 171.367184 43.606723 
L 173.115829 50.272283 
L 174.864474 49.148342 
L 176.613118 49.116434 
L 178.361763 51.427926 
L 180.110408 52.75618 
L 181.859053 54.469154 
L 183.607697 53.458772 
L 185.356342 52.334245 
L 187.104987 54.117186 
L 188.853632 49.747271 
L 190.602276 54.332175 
L 192.350921 52.934308 
L 194.099566 47.674014 
L 195.848211 46.275174 
L 197.596855 38.795572 
L 199.3455 42.590361 
L 201.094145 47.696212 
L 202.842789 48.323986 
L 204.591434 46.314269 
L 206.340079 45.516332 
L 208.088724 46.656834 
L 209.837368 45.374314 
L 211.586013 47.628719 
L 213.334658 48.898556 
L 215.083303 41.974036 
L 216.831947 47.767115 
L 218.580592 53.235429 
L 220.329237 54.817681 
L 222.077882 54.235592 
L 223.826526 54.310426 
L 225.575171 51.60225 
L 227.323816 51.90896 
L 229.072461 52.044558 
L 230.821105 54.591512 
L 232.56975 52.22157 
L 234.318395 50.391116 
L 236.067039 54.155955 
L 237.815684 52.26878 
L 239.564329 52.651077 
L 241.312974 50.689786 
L 243.061618 48.836798 
L 244.810263 51.556382 
L 246.558908 54.868515 
L 248.307553 55.44 
L 250.056197 54.384895 
L 251.804842 54.81358 
L 253.553487 54.627672 
L 255.302132 51.733372 
L 257.050776 49.313924 
L 258.799421 51.256152 
L 260.548066 54.430777 
L 262.296711 54.288628 
L 264.045355 52.38769 
L 265.794 47.006784 
L 267.542645 54.118664 
L 269.291289 54.951402 
L 271.039934 51.47932 
L 272.788579 52.242935 
L 274.537224 52.147231 
L 276.285868 51.735191 
L 278.034513 51.339613 
L 279.783158 51.967863 
L 281.531803 49.749926 
L 283.280447 49.901047 
L 285.029092 42.378126 
L 286.777737 42.117237 
L 288.526382 47.69276 
L 290.275026 37.048817 
L 292.023671 21.787415 
L 293.772316 18.25109 
L 295.520961 15.912118 
L 297.269605 20.872201 
L 299.01825 20.019006 
L 300.766895 29.623941 
L 302.515539 24.108872 
L 304.264184 30.117197 
L 306.012829 30.733809 
L 307.761474 30.468754 
L 309.510118 26.899498 
L 311.258763 29.246828 
L 313.007408 35.0789 
L 314.756053 33.527916 
L 316.504697 33.327776 
L 318.253342 33.632555 
L 320.001987 32.852306 
L 321.750632 34.913966 
L 323.499276 38.695258 
L 325.247921 41.530646 
L 326.996566 44.263509 
L 328.745211 45.57073 
L 330.493855 46.884268 
L 332.2425 48.508948 
L 333.991145 46.908112 
L 335.739789 44.571083 
L 337.488434 43.336521 
L 339.237079 41.393334 
L 340.985724 37.355755 
L 342.734368 37.960149 
L 344.483013 36.214521 
L 346.231658 30.649586 
L 347.980303 35.251854 
L 349.728947 32.986175 
L 351.477592 30.800313 
L 353.226237 28.454421 
L 354.974882 31.356116 
L 356.723526 32.458582 
L 358.472171 33.450158 
L 360.220816 29.781694 
L 361.969461 20.364863 
L 363.718105 17.923965 
L 365.46675 18.414839 
L 367.215395 17.61182 
L 368.964039 23.30117 
L 370.712684 22.773221 
L 372.461329 19.578306 
L 374.209974 15.700233 
L 375.958618 26.212892 
L 377.707263 26.639118 
L 379.455908 26.887867 
L 381.204553 27.877465 
L 382.953197 23.674975 
L 384.701842 22.26818 
L 386.450487 23.910125 
L 388.199132 39.757976 
L 389.947776 28.804567 
L 391.696421 24.056149 
L 393.445066 22.677206 
L 395.193711 22.489651 
L 396.942355 19.544284 
L 398.691 28.176164 
L 398.691 55.44 
L 398.691 55.44 
L 396.942355 55.44 
L 395.193711 55.44 
L 393.445066 55.44 
L 391.696421 55.44 
L 389.947776 55.44 
L 388.199132 55.44 
L 386.450487 55.44 
L 384.701842 55.44 
L 382.953197 55.44 
L 381.204553 55.44 
L 379.455908 55.44 
L 377.707263 55.44 
L 375.958618 55.44 
L 374.209974 55.44 
L 372.461329 55.44 
L 370.712684 55.44 
L 368.964039 55.44 
L 367.215395 55.44 
L 365.46675 55.44 
L 363.718105 55.44 
L 361.969461 55.44 
L 360.220816 55.44 
L 358.472171 55.44 
L 356.723526 55.44 
L 354.974882 55.44 
L 353.226237 55.44 
L 351.477592 55.44 
L 349.728947 55.44 
L 347.980303 55.44 
L 346.231658 55.44 
L 344.483013 55.44 
L 342.734368 55.44 
L 340.985724 55.44 
L 339.237079 55.44 
L 337.488434 55.44 
L 335.739789 55.44 
L 333.991145 55.44 
L 332.2425 55.44 
L 330.493855 55.44 
L 328.745211 55.44 
L 326.996566 55.44 
L 325.247921 55.44 
L 323.499276 55.44 
L 321.750632 55.44 
L 320.001987 55.44 
L 318.253342 55.44 
L 316.504697 55.44 
L 314.756053 55.44 
L 313.007408 55.44 
L 311.258763 55.44 
L 309.510118 55.44 
L 307.761474 55.44 
L 306.012829 55.44 
L 304.264184 55.44 
L 302.515539 55.44 
L 300.766895 55.44 
L 299.01825 55.44 
L 297.269605 55.44 
L 295.520961 55.44 
L 293.772316 55.44 
L 292.023671 55.44 
L 290.275026 55.44 
L 288.526382 55.44 
L 286.777737 55.44 
L 285.029092 55.44 
L 283.280447 55.44 
L 281.531803 55.44 
L 279.783158 55.44 
L 278.034513 55.44 
L 276.285868 55.44 
L 274.537224 55.44 
L 272.788579 55.44 
L 271.039934 55.44 
L 269.291289 55.44 
L 267.542645 55.44 
L 265.794 55.44 
L 264.045355 55.44 
L 262.296711 55.44 
L 260.548066 55.44 
L 258.799421 55.44 
L 257.050776 55.44 
L 255.302132 55.44 
L 253.553487 55.44 
L 251.804842 55.44 
L 250.056197 55.44 
L 248.307553 55.44 
L 246.558908 55.44 
L 244.810263 55.44 
L 243.061618 55.44 
L 241.312974 55.44 
L 239.564329 55.44 
L 237.815684 55.44 
L 236.067039 55.44 
L 234.318395 55.44 
L 232.56975 55.44 
L 230.821105 55.44 
L 229.072461 55.44 
L 227.323816 55.44 
L 225.575171 55.44 
L 223.826526 55.44 
L 222.077882 55.44 
L 220.329237 55.44 
L 218.580592 55.44 
L 216.831947 55.44 
L 215.083303 55.44 
L 213.334658 55.44 
L 211.586013 55.44 
L 209.837368 55.44 
L 208.088724 55.44 
L 206.340079 55.44 
L 204.591434 55.44 
L 202.842789 55.44 
L 201.094145 55.44 
L 199.3455 55.44 
L 197.596855 55.44 
L 195.848211 55.44 
L 194.099566 55.44 
L 192.350921 55.44 
L 190.602276 55.44 
L 188.853632 55.44 
L 187.104987 55.44 
L 185.356342 55.44 
L 183.607697 55.44 
L 181.859053 55.44 
L 180.110408 55.44 
L 178.361763 55.44 
L 176.613118 55.44 
L 174.864474 55.44 
L 173.115829 55.44 
L 171.367184 55.44 
L 169.618539 55.44 
L 167.869895 55.44 
L 166.12125 55.44 
L 164.372605 55.44 
L 162.623961 55.44 
L 160.875316 55.44 
L 159.126671 55.44 
L 157.378026 55.44 
L 155.629382 55.44 
L 153.880737 55.44 
L 152.132092 55.44 
L 150.383447 55.44 
L 148.634803 55.44 
L 146.886158 55.44 
L 145.137513 55.44 
L 143.388868 55.44 
L 141.640224 55.44 
L 139.891579 55.44 
L 138.142934 55.44 
L 136.394289 55.44 
L 134.645645 55.44 
L 132.897 55.44 
L 131.148355 55.44 
L 129.399711 55.44 
L 127.651066 55.44 
L 125.902421 55.44 
L 124.153776 55.44 
L 122.405132 55.44 
L 120.656487 55.44 
L 118.907842 55.44 
L 117.159197 55.44 
L 115.410553 55.44 
L 113.661908 55.44 
L 111.913263 55.44 
L 110.164618 55.44 
L 108.415974 55.44 
L 106.667329 55.44 
L 104.918684 55.44 
L 103.170039 55.44 
L 101.421395 55.44 
L 99.67275 55.44 
L 97.924105 55.44 
L 96.175461 55.44 
L 94.426816 55.44 
L 92.678171 55.44 
L 90.929526 55.44 
L 89.180882 55.44 
L 87.432237 55.44 
L 85.683592 55.44 
L 83.934947 55.44 
L 82.186303 55.44 
L 80.437658 55.44 
L 78.689013 55.44 
L 76.940368 55.44 
L 75.191724 55.44 
L 73.443079 55.44 
L 71.694434 55.44 
L 69.945789 55.44 
L 68.197145 55.44 
L 66.4485 55.44 
L 64.699855 55.44 
L 62.951211 55.44 
L 61.202566 55.44 
L 59.453921 55.44 
L 57.705276 55.44 
L 55.956632 55.44 
L 54.207987 55.44 
L 52.459342 55.44 
L 50.710697 55.44 
L 48.962053 55.44 
L 47.213408 55.44 
L 45.464763 55.44 
L 43.716118 55.44 
L 41.967474 55.44 
L 40.218829 55.44 
L 38.470184 55.44 
L 36.721539 55.44 
L 34.972895 55.44 
L 33.22425 55.44 
L 31.475605 55.44 
L 29.726961 55.44 
L 27.978316 55.44 
L 26.229671 55.44 
L 24.481026 55.44 
L 22.732382 55.44 
L 20.983737 55.44 
L 19.235092 55.44 
L 17.486447 55.44 
L 15.737803 55.44 
L 13.989158 55.44 
L 12.240513 55.44 
L 10.491868 55.44 
L 8.743224 55.44 
L 6.994579 55.44 
L 5.245934 55.44 
L 3.497289 55.44 
L 1.748645 55.44 
L 0 55.44 
z
" clip-path="url(#p6d34c43510)" style="fill: #ffffff; stroke: #ffffff"/>
   </g>
   <g id="line2d_1">
    <path d="M 0 52.872676 
L 1.748645 51.48972 
L 3.497289 51.456304 
L 5.245934 54.758262 
L 6.994579 47.680189 
L 8.743224 51.892354 
L 10.491868 48.482973 
L 12.240513 52.377566 
L 13.989158 52.931475 
L 15.737803 51.935793 
L 17.486447 51.878201 
L 19.235092 51.247468 
L 20.983737 52.901927 
L 22.732382 52.302124 
L 24.481026 54.618823 
L 26.229671 52.52491 
L 29.726961 53.681487 
L 31.475605 53.099473 
L 33.22425 53.422686 
L 34.972895 51.902026 
L 36.721539 53.344711 
L 38.470184 52.048333 
L 40.218829 51.297162 
L 41.967474 54.223572 
L 43.716118 52.689075 
L 45.464763 53.938977 
L 47.213408 52.6851 
L 48.962053 53.726572 
L 50.710697 54.157431 
L 52.459342 52.667533 
L 54.207987 50.378738 
L 55.956632 48.514172 
L 57.705276 50.569894 
L 59.453921 50.505586 
L 61.202566 51.35955 
L 62.951211 51.856146 
L 64.699855 49.349417 
L 66.4485 51.209156 
L 68.197145 49.601018 
L 69.945789 49.647298 
L 71.694434 47.372081 
L 73.443079 40.648178 
L 75.191724 40.992279 
L 76.940368 40.547824 
L 78.689013 45.430707 
L 80.437658 46.498186 
L 82.186303 45.951708 
L 83.934947 48.030473 
L 85.683592 45.58719 
L 87.432237 42.748746 
L 89.180882 41.364709 
L 90.929526 42.533684 
L 92.678171 46.235881 
L 94.426816 40.730937 
L 96.175461 40.719312 
L 97.924105 39.734385 
L 99.67275 46.702471 
L 101.421395 43.456896 
L 103.170039 46.361752 
L 104.918684 40.529749 
L 106.667329 41.677269 
L 108.415974 41.408128 
L 110.164618 39.655459 
L 111.913263 37.018648 
L 113.661908 39.285073 
L 115.410553 16.173896 
L 117.159197 -0 
L 118.907842 12.208342 
L 120.656487 12.4212 
L 122.405132 17.286572 
L 124.153776 16.182711 
L 125.902421 20.525468 
L 129.399711 31.531598 
L 131.148355 30.822285 
L 132.897 30.805409 
L 134.645645 29.655894 
L 136.394289 23.716202 
L 138.142934 29.447148 
L 139.891579 27.46355 
L 141.640224 27.740734 
L 143.388868 28.244281 
L 145.137513 25.71665 
L 146.886158 28.484367 
L 148.634803 35.936403 
L 150.383447 38.542665 
L 152.132092 39.509173 
L 153.880737 37.842992 
L 155.629382 38.352609 
L 157.378026 37.193806 
L 159.126671 39.389439 
L 160.875316 37.086651 
L 162.623961 39.110768 
L 164.372605 36.846825 
L 166.12125 41.391203 
L 167.869895 44.38401 
L 169.618539 48.124002 
L 171.367184 43.606723 
L 173.115829 50.272283 
L 174.864474 49.148342 
L 176.613118 49.116434 
L 178.361763 51.427926 
L 180.110408 52.75618 
L 181.859053 54.469154 
L 185.356342 52.334245 
L 187.104987 54.117186 
L 188.853632 49.747271 
L 190.602276 54.332175 
L 192.350921 52.934308 
L 194.099566 47.674014 
L 195.848211 46.275174 
L 197.596855 38.795572 
L 199.3455 42.590361 
L 201.094145 47.696212 
L 202.842789 48.323986 
L 204.591434 46.314269 
L 206.340079 45.516332 
L 208.088724 46.656834 
L 209.837368 45.374314 
L 211.586013 47.628719 
L 213.334658 48.898556 
L 215.083303 41.974036 
L 218.580592 53.235429 
L 220.329237 54.817681 
L 222.077882 54.235592 
L 223.826526 54.310426 
L 225.575171 51.60225 
L 227.323816 51.90896 
L 229.072461 52.044558 
L 230.821105 54.591512 
L 232.56975 52.22157 
L 234.318395 50.391116 
L 236.067039 54.155955 
L 237.815684 52.26878 
L 239.564329 52.651077 
L 243.061618 48.836798 
L 244.810263 51.556382 
L 246.558908 54.868515 
L 248.307553 55.44 
L 250.056197 54.384895 
L 251.804842 54.81358 
L 253.553487 54.627672 
L 255.302132 51.733372 
L 257.050776 49.313924 
L 258.799421 51.256152 
L 260.548066 54.430777 
L 262.296711 54.288628 
L 264.045355 52.38769 
L 265.794 47.006784 
L 267.542645 54.118664 
L 269.291289 54.951402 
L 271.039934 51.47932 
L 272.788579 52.242935 
L 274.537224 52.147231 
L 278.034513 51.339613 
L 279.783158 51.967863 
L 281.531803 49.749926 
L 283.280447 49.901047 
L 285.029092 42.378126 
L 286.777737 42.117237 
L 288.526382 47.69276 
L 290.275026 37.048817 
L 292.023671 21.787415 
L 293.772316 18.25109 
L 295.520961 15.912118 
L 297.269605 20.872201 
L 299.01825 20.019006 
L 300.766895 29.623941 
L 302.515539 24.108872 
L 304.264184 30.117197 
L 306.012829 30.733809 
L 307.761474 30.468754 
L 309.510118 26.899498 
L 311.258763 29.246828 
L 313.007408 35.0789 
L 314.756053 33.527916 
L 316.504697 33.327776 
L 318.253342 33.632555 
L 320.001987 32.852306 
L 321.750632 34.913966 
L 323.499276 38.695258 
L 326.996566 44.263509 
L 330.493855 46.884268 
L 332.2425 48.508948 
L 333.991145 46.908112 
L 335.739789 44.571083 
L 337.488434 43.336521 
L 339.237079 41.393334 
L 340.985724 37.355755 
L 342.734368 37.960149 
L 344.483013 36.214521 
L 346.231658 30.649586 
L 347.980303 35.251854 
L 353.226237 28.454421 
L 354.974882 31.356116 
L 358.472171 33.450158 
L 360.220816 29.781694 
L 361.969461 20.364863 
L 363.718105 17.923965 
L 365.46675 18.414839 
L 367.215395 17.61182 
L 368.964039 23.30117 
L 370.712684 22.773221 
L 372.461329 19.578306 
L 374.209974 15.700233 
L 375.958618 26.212892 
L 377.707263 26.639118 
L 379.455908 26.887867 
L 381.204553 27.877465 
L 382.953197 23.674975 
L 384.701842 22.26818 
L 386.450487 23.910125 
L 388.199132 39.757976 
L 389.947776 28.804567 
L 391.696421 24.056149 
L 393.445066 22.677206 
L 395.193711 22.489651 
L 396.942355 19.544284 
L 398.691 28.176164 
L 398.691 28.176164 
" clip-path="url(#p6d34c43510)" style="fill: none; stroke: #000000; stroke-linecap: square"/>
   </g>
  </g>
 </g>
 <defs>
  <clipPath id="p6d34c43510">
   <rect x="0" y="-0" width="398.691" height="55.44"/>
  </clipPath>
 </defs>
</svg>
